# AST/ASF file generated using VICON BodyLanguage
# -----------------------------------------------
:version 1.10
:name VICON
:units
  mass 1.0
  length 0.45
  angle deg
:documentation
   .ast/.asf automatically generated from VICON data using
   VICON BodyBuilder and BodyLanguage model FoxedUp or BRILLIANT.MOD
:root
   order TX TY TZ RX RY RZ
   axis XYZ
   position 0 0 0  
   orientation 0 0 0 
:bonedata
  begin
     id 1 
     name lhipjoint
     direction 0.573633 -0.743009 0.344793 
     length 2.46257 
     axis 0 0 0  XYZ
  end
  begin
     id 2 
     name lfemur
     direction 0.34202 -0.939693 0  
     length 7.3842  
     axis 0 0 20  XYZ
    dof rx ry rz
    limits (-160.0 20.0)
           (-70.0 70.0)
           (-60.0 70.0)
  end
  begin
     id 3 
     name ltibia
     direction 0.34202 -0.939693 0   
     length 7.50407   
     axis 0 0 20   XYZ
    dof rx
    limits (-10.0 170.0)
  end
  begin
     id 4 
     name lfoot
     direction 0.110749 -0.304281 0.946123   
     length 1.95925   
     axis -90 7.62852e-016 20   XYZ
    dof rx rz
    limits (-45.0 90.0)
           (-70.0 20.0)
  end
  begin
     id 5 
     name ltoes
     direction 1.53554e-011 -4.21843e-011 1   
     length 0.978318   
     axis -90 7.62852e-016 20   XYZ
    dof rx
    limits (-90.0 20.0)
  end
  begin
     id 6 
     name rhipjoint
     direction -0.488109 -0.791693 0.367385   
     length 2.31113  
     axis 0 0 0  XYZ 
  end
  begin
     id 7 
     name rfemur
     direction -0.34202 -0.939693 0   
     length 7.40965   
     axis 0 0 -20   XYZ
    dof rx ry rz
    limits (-160.0 20.0)
           (-70.0 70.0)
           (-70.0 60.0)
  end
  begin
     id 8 
     name rtibia
     direction -0.34202 -0.939693 0   
     length 7.55548   
     axis 0 0 -20   XYZ
    dof rx
    limits (-10.0 170.0)
 end
 begin
     id 9 
     name rfoot
     direction -0.127594 -0.350561 0.927808   
     length 2.07199  
     axis -90 -7.62852e-016 -20   XYZ
    dof rx rz
    limits (-45.0 90.0)
           (-20.0 70.0)
  end
  begin
     id 10 
     name rtoes
     direction -1.53542e-011 -4.21909e-011 1   
     length 1.02667   
     axis -90 -7.62852e-016 -20   XYZ
    dof rx
    limits (-90.0 20.0)
  end
  begin
     id 11 
     name lowerback
     direction -0.0103342 0.997298 -0.0727278   
     length 2.02836   
     axis 0 0 0   XYZ
    dof rx ry rz
    limits (-20.0 45.0)
           (-30.0 30.0)
           (-30.0 30.0)
  end
  begin
     id 12 
     name upperback
     direction 0.0171146 0.999786 -0.011606   
     length 2.03179   
     axis 0 0 0   XYZ
    dof rx ry rz
    limits (-20.0 45.0)
           (-30.0 30.0)
           (-30.0 30.0)
  end
  begin
     id 13 
     name thorax
     direction 0.0216927 0.999513 0.0224343   
     length 2.03882   
     axis 0 0 0   XYZ
    dof rx ry rz
    limits (-20.0 45.0)
           (-30.0 30.0)
           (-30.0 30.0)
  end
  begin
     id 14 
     name lowerneck
     direction 0.000989287 0.993907 0.110221   
     length 1.75428   
     axis 0 0 0   XYZ
    dof rx ry rz
    limits (-20.0 45.0)
           (-30.0 30.0)
           (-30.0 30.0)
  end
  begin
     id 15 
     name upperneck
     direction -0.0172474 0.994813 -0.100253   
     length 1.77058   
     axis 0 0 0   XYZ
    dof rx ry rz
    limits (-20.0 45.0)
           (-30.0 30.0)
           (-30.0 30.0)
  end
  begin
     id 16
     name head
     direction -0.00486455 0.99894 -0.0457663  
     length 1.77427  
     axis 0 0 0   XYZ
    dof rx ry rz
    limits (-20.0 45.0)
           (-30.0 30.0)
           (-30.0 30.0)
  end
  begin
     id 17 
     name lclavicle
     direction 0.927314 0.333734 -0.169441  
     length 3.97584  
     axis 0 0 0   XYZ
    dof ry rz
    limits (-20.0 10.0)
           (0.0 20.0)
  end
  begin
     id 18 
     name lhumerus
     direction 1 -4.48965e-011 -3.25313e-028   
     length 4.76468   
     axis 180 -30 -90   XYZ
    dof rx ry rz
    limits (-60.0 90.0)
           (-90.0 90.0)
           (-90.0 90.0)
  end
  begin
     id 19
     name lradius
     direction 1 -4.48969e-011 -2.8465e-028   
     length 3.52712   
     axis -180 -30 -90   XYZ
    dof rx
    limits (-10.0 170.0)
  end
  begin
     id 20
     name lwrist
     direction 1 -4.4896e-011 -7.78665e-028   
     length 1.76356   
     axis 1.91374e-015 90 90   XYZ
    dof ry
    limits (-180.0 0.0)
 end
  begin
     id 21 
     name lhand
     direction 1 -4.48959e-011 -1.55733e-027   
     length 0.859564   
     axis 9.9371e-016 90 90   XYZ
    dof rx rz
    limits (-90.0 90.0)
           (-45.0 45.0)
  end
  begin
     id 22 
     name lfingers
     direction 1 -4.48965e-011 -3.11466e-027   
     length 0.693002   
     axis 1.98742e-015 90 90   XYZ
    dof rx
    limits (0.0 90.0)
  end
  begin
     id 23
     name lthumb
     direction 0.707107 -6.34948e-011 0.707107   
     length 0.995017   
     axis -90 45 2.85299e-015   XYZ
    dof rx rz
    limits (-45.0 45.0)
           (-45.0 45.0)
  end
  begin
     id 24 
     name rclavicle
     direction -0.899388 0.348209 -0.264294   
     length 3.68366  
     axis 0 0 0   XYZ 
    dof ry rz
    limits (-10.0 20.0)
           (-20.0 0.0)
  end
  begin
     id 25 
     name rhumerus
     direction -1 -4.48965e-011 -3.01536e-027  
     length 4.90577   
     axis 180 30 90   XYZ
    dof rx ry rz
    limits (-90.0 60.0)
           (-90.0 90.0)
           (-90.0 90.0)
  end
  begin
     id 26 
     name rradius
     direction -1 -4.48966e-011 3.93291e-027   
     length 3.42692   
     axis -180 30 90   XYZ
    dof rx
    limits (-10.0 170.0)
  end
  begin
     id 27 
     name rwrist
     direction -1 -4.48969e-011 -7.78665e-028   
     length 1.71346   
     axis 1.91374e-015 -90 -90   XYZ
    dof ry
    limits (-180.0 0.0)
  end
  begin
     id 28
     name rhand
     direction -1 -4.48967e-011 -1.55733e-027   
     length 0.740957   
     axis 9.9371e-016 -90 -90   XYZ
    dof rx rz
    limits (-90.0 90.0)
           (-45.0 45.0)
  end
  begin
     id 29
     name rfingers
     direction -1 -4.48949e-011 -3.11466e-027   
     length 0.597378   
     axis 1.98742e-015 -90 -90   XYZ
    dof rx
    limits (0.0 90.0)
  end
  begin
     id 30
     name rthumb
     direction -0.707107 -6.34931e-011 0.707107   
     length 0.857719   
     axis -90 -45 -2.85299e-015   XYZ
    dof rx rz
    limits (-45.0 45.0)
           (-45.0 45.0)
  end
:hierarchy
  begin
    root lhipjoint rhipjoint lowerback
    lhipjoint lfemur
    lfemur ltibia
    ltibia lfoot
    lfoot ltoes
    rhipjoint rfemur
    rfemur rtibia
    rtibia rfoot
    rfoot rtoes
    lowerback upperback
    upperback thorax
    thorax lowerneck lclavicle rclavicle
    lowerneck upperneck
    upperneck head
    lclavicle lhumerus
    lhumerus lradius
    lradius lwrist
    lwrist lhand lthumb
    lhand lfingers
    rclavicle rhumerus
    rhumerus rradius
    rradius rwrist
    rwrist rhand rthumb
    rhand rfingers
  end

#!OML:ASF E:\I on waltz\AllaLogoMonkeySwing\Project 1\Capture day 1\Session 1\Subject1.ASF
:FULLY-SPECIFIED
:DEGREES
16
root -0.639615 17.9926 -32.1317 -0.0130212 2.41731 -1.19787
lowerback 4.35613 -0.63476 -2.62844
upperback -1.17073 -0.962975 1.00291
thorax -3.59131 -0.410093 2.58161
lowerneck -8.03012 -5.37407 -7.57346
upperneck 13.7605 -6.52182 1.83687
head 5.79886 -3.438 1.31366
rclavicle 5.83115e-015 4.27387e-015
rhumerus -46.0002 -38.3216 -59.1853
rradius 15.8004
rwrist 23.2185
rhand -5.66885 -37.3116
rfingers 7.12502
rthumb 20.1507 -66.2865
lclavicle 5.83115e-015 4.27387e-015
lhumerus -42.1965 24.4035 77.2655
lradius 39.6823
lwrist -0.440547
lhand -9.5378 -12.7558
lfingers 7.12502
lthumb 16.4287 16.5685
rfemur 5.39615 -3.73641 14.8962
rtibia 14.6532
rfoot -14.721 -13.1678
rtoes 13.2485
lfemur 7.65277 -0.583114 -11.2342
ltibia 7.07159
lfoot -10.8467 5.97184
ltoes -39.9612
17
root -0.657225 17.9922 -32.1273 -0.0128017 2.57372 -1.18195
lowerback 4.38692 -0.692133 -2.58967
upperback -1.17029 -1.03835 0.994749
thorax -3.60418 -0.448338 2.5573
lowerneck -7.93851 -5.31913 -7.46498
upperneck 13.5379 -6.45058 1.72149
head 5.70225 -3.40375 1.27125
rclavicle 5.89831e-015 -5.11871e-015
rhumerus -45.0081 -37.2155 -60.3813
rradius 16.2169
rwrist 21.5041
rhand -6.19352 -36.337
rfingers 7.12502
rthumb 19.6463 -65.3643
lclavicle 5.89831e-015 -5.11871e-015
lhumerus -42.4048 24.806 77.1274
lradius 39.0955
lwrist -0.433077
lhand -10.149 -12.629
lfingers 7.12502
lthumb 15.8401 16.743
rfemur 5.47625 -3.69483 14.996
rtibia 14.5609
rfoot -14.7386 -13.3127
rtoes 13.5315
lfemur 7.64155 -0.500312 -11.1783
ltibia 7.08415
lfoot -10.7835 5.88998
ltoes -40.0344
18
root -0.672224 17.9943 -32.1255 0.0723367 2.7027 -1.27341
lowerback 4.36499 -0.74099 -2.4067
upperback -1.19622 -1.09221 1.00704
thorax -3.61807 -0.478534 2.47087
lowerneck -7.97269 -5.31051 -7.45945
upperneck 13.5044 -6.42238 1.62619
head 5.69316 -3.39559 1.24231
rclavicle 8.31401e-015 -2.28602e-015
rhumerus -44.2026 -36.4291 -61.1985
rradius 16.6117
rwrist 19.8436
rhand -6.83399 -34.0474
rfingers 7.12502
rthumb 19.0305 -63.1364
lclavicle 8.31401e-015 -2.28602e-015
lhumerus -42.7817 25.6406 76.7159
lradius 38.6306
lwrist -0.919919
lhand -10.3144 -12.3912
lfingers 7.12502
lthumb 15.6809 16.9934
rfemur 5.43041 -3.5676 15.2535
rtibia 14.4666
rfoot -14.7394 -13.5089
rtoes 13.6788
lfemur 7.52042 -0.418142 -10.9805
ltibia 7.0488
lfoot -10.6293 5.85236
ltoes -39.9839
19
root -0.683364 17.9959 -32.1255 0.182876 2.83086 -1.34077
lowerback 4.31133 -0.757193 -2.23273
upperback -1.20659 -1.1025 1.01405
thorax -3.60071 -0.487599 2.38011
lowerneck -8.12806 -5.40976 -7.42331
upperneck 13.6724 -6.50803 1.34179
head 5.7665 -3.45626 1.13422
rclavicle 7.6435e-015 3.37934e-015
rhumerus -43.4796 -35.9457 -61.7199
rradius 16.8994
rwrist 18.1786
rhand -7.60556 -30.7461
rfingers 7.12502
rthumb 18.2883 -59.9064
lclavicle 7.6435e-015 3.37934e-015
lhumerus -43.1351 26.4439 76.3127
lradius 38.084
lwrist -1.72704
lhand -10.3512 -12.3856
lfingers 7.12502
lthumb 15.6454 17.0018
rfemur 5.3496 -3.38173 15.4918
rtibia 14.3573
rfoot -14.6581 -13.7562
rtoes 13.6284
lfemur 7.36705 -0.481423 -10.8625
ltibia 7.01612
lfoot -10.555 5.8809
ltoes -39.8757
20
root -0.691391 17.9964 -32.1233 0.202142 2.93211 -1.24942
lowerback 4.32094 -0.766447 -2.28146
upperback -1.18822 -1.11882 0.982596
thorax -3.58593 -0.495414 2.37609
lowerneck -8.27638 -5.50549 -7.2929
upperneck 13.8612 -6.59429 1.00399
head 5.83977 -3.51701 0.994115
rclavicle 4.53439e-015 7.45443e-016
rhumerus -42.6814 -35.2169 -62.5092
rradius 17.301
rwrist 16.4751
rhand -8.4182 -28.0725
rfingers 7.12502
rthumb 17.5064 -57.3043
lclavicle 4.53439e-015 7.45443e-016
lhumerus -43.4346 26.7764 76.0879
lradius 37.5231
lwrist -2.27417
lhand -10.4912 -12.3838
lfingers 7.12502
lthumb 15.5106 17.014
rfemur 5.39234 -3.31504 15.4643
rtibia 14.2677
rfoot -14.6362 -13.9
rtoes 13.6472
lfemur 7.34606 -0.550788 -10.9779
ltibia 7.04391
lfoot -10.6588 5.88534
ltoes -39.7826
21
root -0.695839 17.9946 -32.1199 0.16085 2.99006 -1.02476
lowerback 4.37694 -0.777956 -2.49559
upperback -1.16298 -1.14993 0.91471
thorax -3.58714 -0.507187 2.4293
lowerneck -8.00628 -5.44076 -7.33518
upperneck 13.7239 -6.53072 1.06167
head 5.75116 -3.48383 1.03348
rclavicle 6.0839e-015 -2.33572e-015
rhumerus -41.5102 -33.5599 -64.2072
rradius 18.7056
rwrist 14.7282
rhand -7.25928 -29.9195
rfingers 7.12502
rthumb 18.6214 -59.0482
lclavicle 6.0839e-015 -2.33572e-015
lhumerus -43.7449 27.0508 75.8166
lradius 36.9016
lwrist -2.88203
lhand -10.579 -12.3358
lfingers 7.12502
lthumb 15.426 17.0686
rfemur 5.51491 -3.41482 15.1898
rtibia 14.2055
rfoot -14.6309 -13.8746
rtoes 13.7701
lfemur 7.43063 -0.59035 -11.2716
ltibia 7.04547
lfoot -10.7723 5.90127
ltoes -39.6591
